<svg xmlns="http://www.w3.org/2000/svg" width="125" height="36" viewBox="0 0 125 36">
    <g fill="#FFF" fill-rule="evenodd">
        <path d="M36.29 18.766c.59.454 1.176.899 1.434 1.635.104.283.101.593.101.891 0 0-.488-.404-.6-.458-1.023-.51-2.168-.499-3.292-.562-.68-.032-1.545-.112-2.175-.404-.275-.125-.59-.368-.893-.416l.308.696c.21.508.074 1.24.488 1.618-.223.13-.632-.197-.796-.32-.315-.234-.665-.331-1.044-.377.752 1.269 1.074 2.746 1.074 4.216 0 .91.079 2.256.445 3.058.19.42.48.619.81.922-.37.046-.947.13-1.27-.071-.67-.422-1.013-1.377-1.424-2.039a12.763 12.763 0 0 0-.712-1.019 3.575 3.575 0 0 0-1.7-1.226c.174.575.3 1.34.251 1.937-.049.577-.348 1.434-.348 1.915.053-.224-.91-2.005-1.282-1.955.085.668.112 1.527-.085 2.178-.406 1.33-1.107 2.637-1.438 3.95-.181.739-.214 2.121-.113 2.876.001.006-.007.009-.021.01h-.036c-.385-.024-2.591-.677-2.591-3.221 0-1.373.877-2.538.949-3.91 0 0-.267-.011-.488.1-1.387.695-2.107 2.63-3.21 3.67 0 0 .126-.726.155-1.158.052-.809.24-1.742.697-2.43.141-.209.32-.53.377-.573l.058-.04s-.702-.1-.993-.025c-.294.065-.85.304-1.158.513-.304.21-.613.488-.81.697-.194.21-.737.77-.92.95-.915.922-2.087 1.529-3.331 1.883-1.056.304-3.469.836-4.241-.377 2.06-.245 3.33-1.201 4.436-2.943.455-.717 1.457-1.388 2.23-1.746 0 0-1.298.015-2.481.377-1.71.523-3.097.804-4.885 0 2.617-.486 1.817-1.675 3.934-2.303 0 0-.779-.445-1.449-.573-1.981-.373-3.778.033-5.847-.06-1.216-.15-2.165-.52-3.066-1.42-.25-.248-1.033-1.342-1.144-1.547a3.322 3.322 0 0 1-.194-.46v-.003c.026.016.494.299.724.406 1.016.476 2.514.618 3.569.262.665-.22 1.175-.688 1.786-.905.37-.132 1.349-.268 1.718-.082-.511-.663-.921-.915-1.648-1.255-1.344-.645-2.463-.393-3.348-1.816a4.628 4.628 0 0 1-.195-.393s.239.098.307.14c.824.497 2.163-.334 3.111-.334.65 0 1.04.358 1.457.778 0 0-.257-1.105-.616-1.723-.692-1.198-1.457-2.632-1.691-3.995-.338-1.975.274-3.028 1.376-4.654 0 0 0 1.523.097 1.971.201.91.957 1.787 1.945 1.89.075.005-.144-1.218.406-3.34l.648-2.622s.166-.616.193-1.206c.03-.596-.306-1.061-.306-1.061s.494-.035.867.25c1.272.969 1.244 2.657 1.034 4.046 0 0-.08.924.074 1.16.155.235.414.46.414.46l.858-2.62s.733-1.964 1.247-2.852c.514-.885 3.03-3.526 3.29-3.727.715.864.544 2.018.147 2.974-.19.444-.658 1.265-.609 1.759.047.496.308.809.412.965.106.154.763-.965 1.907-1.475 1.14-.513 2.103-.713 2.66-.909.56-.193 1.501-.47 1.7-.6.206-.129-1.333 2.677-1.326 2.999.009.323.114.455.114.455s.761-.753 1.458-.997c.697-.246 3.604-.797 3.604-.797.728-.14 1.064-.56 1.508-1.107 0 0 .018.826-.089 1.149-.106.324-.404.9-.697 1.11-.291.212-1.068.392-1.457.642-.638.41-.679.882-.679 1.53.679-.489 1.114-.796 2.004-.819.373-.006 1.387.346 1.55.455-.813.03-2.156.839-1.91.936 2.259 1.133 3.565-.055 6.977.363.881.08 2.077.846 2.844 1.257-.867 0-2.844-.248-3.613.264-.169.112-.36.32-.5.533-.485.724-.644 1.088-1.676 1.185-.56.052-1.287.116-1.84.012.93.882 2.374.712 3.195 1.94-.644.3-1.389.303-2.052.588a2.56 2.56 0 0 0-.39.222c.893.51 1.343 1.21 2.094 1.871.236.207 1.029.808 1.38.989.752.398 1.581.752 2.258 1.272zM19.1 7.93c-5.13 0-9.303 4.17-9.303 9.293 0 5.125 4.173 9.293 9.302 9.293 5.13 0 9.302-4.168 9.302-9.293 0-5.123-4.173-9.293-9.302-9.293zM42.407 19.559h82.033v-.931H42.407zM45.966 5.591v5.322h.053l2.358-5.322h4.168v9.314h-3.57V9.69h-.052l-2.357 5.216h-4.169V5.591zM59.43 5.591H63v9.314h-3.57v-3.433h-2.384v3.433h-3.568V5.591h3.568v3.22h2.384zM73.123 5.591v2.755H69.98v6.56h-3.57v-6.56h-3.142V5.59zM81.527 5.591v2.195H76.96v1.345h4.368v2.129H76.96v1.45h4.662v2.195H73.39V5.591zM85.849 10.062h.786c.427 0 1.638-.026 1.638-1.158 0-.546-.293-1.158-1.65-1.158h-.774v2.316zm1.985-4.47c2.809 0 4.035 1.635 4.035 3.339 0 1.49-1.065 3.287-3.969 3.287h-1.957v2.687h-3.57V5.591h5.461zM98.973 10.062h.787c.425 0 1.637-.026 1.637-1.158 0-.546-.293-1.158-1.651-1.158h-.773v2.316zm1.985-4.47c2.81 0 4.036 1.635 4.036 3.339 0 1.49-1.066 3.287-3.97 3.287h-1.957v2.687h-3.57V5.591h5.46zM109.19 7.8l-.96 2.914h1.985l-.973-2.914h-.053zm2.503-2.209l3.316 9.314h-3.755l-.64-2.01h-2.797l-.625 2.01h-3.569l3.262-9.314h4.808zM118.186 10.248c0 .972.094 2.582 1.439 2.582s1.438-1.61 1.438-2.582c0-.971-.093-2.581-1.438-2.581s-1.44 1.61-1.44 2.581zm6.633 0c0 2.967-1.905 4.817-5.194 4.817-3.29 0-5.195-1.85-5.195-4.817s1.905-4.817 5.195-4.817c3.289 0 5.194 1.85 5.194 4.817z"/>
        <path d="M15.912 9.884a.138.138 0 0 0-.027.014c.016-.014.016-.014.027-.014zm.549 1.414c.01-.038.023-.076.035-.113.05-.021.136-.04.093-.107-.03-.006-.059-.007-.086-.01l-.064-.116c.02-.032.064-.033.093-.064-.002-.013-.002-.023-.002-.036l-.044-.032a.273.273 0 0 0 .031-.12c-.056-.022-.107-.045-.16-.067 0-.12-.18-.075-.18-.124.274-.129.8-.238 1.056-.021-.019.055-.03.086-.03.141.022.007.139 0 .148.007-.013.02-.004.034 0 .055.08.029.206.042.27-.02.01.002.01.002.066.072.28.094.28.094.294.09-.795-.53-1.817-1.083-2.81-1a8.5 8.5 0 0 0-2.304 1.803l.203-.086c1.09-.349 2.262-.3 3.39-.252zm6.153-1.671a8.32 8.32 0 0 0-3.324-.774l-.009.18c1.069.059 2.03.25 3.029.654.098-.023.201-.042.304-.06zm-3.506.917l.041-.002c0 .006 0 .013.002.022l-.01.005c-.013-.007-.023-.017-.033-.025zm.634.096c-.006.015-.006.028-.006.04h-.014l-.015-.02c.009-.014.02-.027.035-.02zm.21.108c-.012 0-.024.003-.033.005a.277.277 0 0 0-.03-.033c.02.004.04.01.059.013 0 .006.004.01.004.015zm.284-.34c-.016.008-.025.016-.038.028v.034c.013.008.022.018.038.03-.025.012-.025.012-.065.016-.03-.072-.144-.06-.211-.07-.008-.042-.008-.081-.036-.115-.043 0-.069.034-.103.059-.017-.118-.01-.125-.099-.186 0-.007 0-.015.004-.022l.062-.027c.164.098.313.059.486.106.01.022.017.045.03.068-.05-.013-.14-.052-.181-.02a.245.245 0 0 0-.004.043c.037.02.078.038.117.056zm-.757-.072c.014.002.036.004.054.01.003.012.012.023.018.037a.295.295 0 0 0-.058.011l-.014-.058zm.037 1.186c-.016-.012-.016-.012-.06-.021 0-.117.828-.696.936-.781-.11-.006-.135-.01-.205-.095.087-.015.311-.045.365-.018.186-.126.186-.126.212-.151l-.324-.196c.08-.107-.191-.107-.261-.154-.094-.156-.097-.097-.266-.009-.143-.102-.245-.122-.428-.135-.004.005-.008.006-.011.012-.086-.075-.116-.028-.198.04 0 .08.04.093.095.147 0 .033-.028.053-.05.078l-.043-.04c-.004.417-.012.84-.012 1.263h-.07l-.008-.449c-.015.018-.023.02-.044.025a6.22 6.22 0 0 1-.104-.112c.002-.014.002-.014.029-.03.006.014.014.026.022.04l.097.016c.01-.123.01-.123.01-.916-.032-.017-.05-.041-.08-.052-.02.019-.04.039-.067.039a1.478 1.478 0 0 1-.085-.119c.054-.005.105-.007.157-.013.011-.018.011-.018.011-.05-.011-.011-.011-.011-.141-.047.07-.004.14-.011.21-.011 0-.151.004-.296.004-.443-.684-.036-.684-.036-.73-.048-.143-.104-.143-.104-.174-.116-.15.041-.453.084-.169.176-.053.024-.103.053-.153.08 0 .084.112.082.18.1v.014c-.093.037.057.099.077.103 0 .017.002.033.006.05-.149.008-.294.015-.44.024 0-.016 0-.032.003-.048-.024-.023-.065-.017-.094-.023v-.033c-.037-.036-.085 0-.124.013-.1-.1-.257.068-.28.172-.078-.008-.158-.014-.236-.021-.019-.018-.01-.042-.026-.06-.108 0-.23.04-.337.06a.733.733 0 0 1 .05-.037v-.04a.25.25 0 0 0-.028-.018c-.296.102-.296.102-.31.098.225-.254.61-.27.873-.463V9.29c-.011-.01-.025-.021-.034-.026 1.06-.423 2.291-.085 3.35.087.486.202.972.41 1.457.615 0 .18-.002.207-.127.33 0 .083.12.091.133.19.016.003.035.012.052.019l.043.23c-.163.051-.64.252-.792.225-.17-.345-.163-.3-.537-.358a.643.643 0 0 1-.008-.09c-.46.316-.892.648-1.316 1.009zm-.07-.651a.029.029 0 0 0-.016-.012.08.08 0 0 1 .027.006.015.015 0 0 0-.01.006zm-.45-.51c0-.054-.056-.108-.091-.145.068-.002.068-.002.14.007.024.034.012.074.001.115-.014.008-.032.014-.05.023zm-.093.35c-.011.013-.02.028-.031.042-.011-.04-.043-.04-.073-.063.067 0 .268-.028.104.02zm.041-.163v.008c-.078.01-.078.01-.127.024-.012-.016-.012-.016-.014-.032h.141zm-.244-.765c.052-.009.105-.015.157-.018-.01.018-.014.044-.04.051a2.038 2.038 0 0 1-.117-.033zm.244.134c-.06.05-.128.088-.16.159-.042-.021-.062-.07-.098-.106a.459.459 0 0 1 .258-.053zm-.222.36c-.09 0-.156.061-.238.061-.062-.083-.29-.057-.39-.064 0-.161-.423-.093-.52-.093v-.065c.105-.003.21-.01.315-.013.01-.016.01-.016.01-.05-.01-.012-.01-.012-.343-.107 0-.014.001-.025.007-.034.206-.028.336-.04.538.017 0 .01.003.019.004.03a.156.156 0 0 0 .039.021c0 .042-.039.056-.039.103.18.1.353.178.554.106.158.01.158.01.179.02l.014.17c-.024.006-.045.015-.069.021-.017-.042-.04-.084-.06-.123zm-2.52-.49c-.01-.013-.01-.013-.043-.022a.347.347 0 0 1 .048-.019c-.003.012-.004.026-.006.04zm.972-.483c-.081.034-.177.09-.266.106.247-.106.247-.106.266-.106zm4.952 1.002c-.033 0-.043.01-.064.04-.056-.043-.002-.065.04-.101.012.008.012.008.024.061zm.076-.322c-.009.005-.017.01-.028.013-.004.072-.004.072.005.12l-.034.006-.008-.198c.01-.002.01-.002.065.06zm-3.442 1.943c-.794.32-1.546.778-2.27 1.234-.004.007-.004.016-.004.027.07.04.066.06.157.078-.004.01-.007.023-.01.035-.2.192-.519.668-.726.737-.016-.014-.016-.014-.224-.088 0-.017 0-.017.168-.28.16 0 .186-.036.227-.2.1-.078.202-.152.304-.228-.004-.039-.004-.074-.004-.11.586-.326 1.153-.682 1.747-.996.08-.036.558-.3.625-.28.005.026.022.045.01.071zm-.99.616a.218.218 0 0 1-.037-.007v-.017a.332.332 0 0 0 .057.015.073.073 0 0 0-.02.01zm-.903 1.533c.017-.023.03-.047.047-.068.02.016.02.016.028.036-.012.013-.012.013-.075.032zm-.33-.055c-.041-.113-.086-.223-.127-.333-.011-.006-.025-.01-.033-.014.054-.073.145-.21.234-.23.065.066.08.406.086.525-.054.046-.086.046-.16.052zm-.955-.08c.018.187.088.286-.007.46-.125.037-.249.071-.376.11.016-.047.083-.06.108-.108-.044-.077-.167-.235-.167-.322.104-.077.188-.147.237-.26.21-.127.411-.27.613-.415l-.005-.008a.154.154 0 0 0-.05.003c-.243.13-.538-.042-.795.139 0 .052.016.06.064.082l-.026.056c-.064 0-.112 0-.167-.037-.215 0-.217.243-.406.073.133-.12.274-.237.407-.355.093-.01.187-.023.281-.035l.202-.227c.074 0 .07.036.082-.057.072.042.142.085.211.128.237 0 .285-.14.516-.038.01.03.01.03.006.084-.158.117-.315.236-.472.355-.057.092-.164.32-.256.372zm-.477.523a.587.587 0 0 0-.084-.017c-.027-.067-.108-.218-.097-.286l.042-.028.013.102c.063-.06.063-.06.099-.085.033.058.137.188.137.251a.302.302 0 0 1-.11.063zm-.06.53c-.13-.04-.13-.04-.175.094h-.037c-.139-.03-.223-.252-.297-.37.054-.071.114-.14.18-.207.216.173.213-.066.4.027-.026.038-.053.366-.07.456zm.007.865c-.136.046-.269.089-.402.135-.088-.043-.157-.054-.223-.075-.03-.104-.15-.1-.06-.217-.028-.041-.064-.055-.105-.08 0-.085.061-.191.091-.275 0-.187-.217-.302-.236-.46.05-.012.08-.012.093-.065.094-.01.187-.023.285-.036.2.31.2.31.233.355.272.036.182.113.154.363.126.256.126.256.17.355zm-.16 1.274c-.012.005-.093-.03-.124-.03-.046.065-.022.192-.022.271-.068-.067-.048-.194-.056-.289.184-.019-.14-.217-.085-.331l-.006-.125c.096.168.192.336.293.504zm.08.137c.298.025.186-.23.196-.48.036-.04.077-.08.116-.118.036.015.033.054.073.06.03.323.03.323.03.416-.074.11-.172.196-.14.33h-.014c-.039-.013-.039-.013-.41-.08v-.202c.06.016.121.016.15.074zm.677.556c.041-.066.041-.066.088-.168l.275-.013c.087.085.019.06.019.162.04.031.083.061.126.09.057.306.327.47.339.76-.183-.05-.21.047-.39.1-.035-.02-.07-.04-.106-.057-.063-.36-.29-.594-.5-.893.03-.003.102.02.15.019zm.329-.646c.059 0 .12.016.181.03-.09.296-.081.225.207.334l.02.046c.094.026.185.052.276.076.026.134.054.265.083.4.023.02.096.053.14.082-.106.013-.055.045-.055.134-.19.086-.162.076-.098.265a3.278 3.278 0 0 0-.085.146c-.013 0-.026.007-.04.011-.013-.008-.025-.011-.038-.016-.01-.284-.133-.372-.302-.604-.033-.15-.027-.207-.148-.292 0-.108.067-.115-.086-.216l-.216-.001c.051-.134.106-.266.16-.395zm.106-.468l.075-.234c.218.01.22-.025.297.155.046.018.18.018.219-.005-.007-.053-.01-.104-.014-.157.02-.003.042-.008.064-.013l.026-.052c.107-.01.094-.02.1-.12.213.003.424.01.641.016.017.058.04.114.06.173l.18.057c.004.029.01.055.032.077.217-.041.217-.041.245-.039l.16.474c.032.033.071.007.115.007.045.061.166.056.238.061.103.1.135.158.277.166l.045.054c-.027.08-.094.038-.114.184l-.275.021c-.018.041-.018.041-.058.218-.329.07-.245.036-.272.396h-.015c-.129-.04-.449-.208-.57-.184-.096.077-.091.065-.176-.015-.15 0-.285.132-.437.151a.4.4 0 0 0-.117-.073c-.031-.14-.06-.275-.088-.414-.097-.026-.283-.038-.306-.142.13-.18.124-.151.052-.37-.085 0-.164.034-.244.057-.082-.023-.165-.049-.246-.068-.064-.201-.025-.267.106-.381zm.897 1.475l.007-.022c.035-.014.075-.027.11-.04.037.059.107.134.123.201-.03.004-.058.004-.086.008l-.154-.147zm.728.19c-.348.055-.348.055-.365.065a.197.197 0 0 0-.012.04h-.04c-.16-.014-.344-.089-.394-.258.056 0 .172.138.213.176.052 0 .164 0 .207-.026 0-.09-.103-.187-.147-.255 0-.013.003-.022.006-.034.23-.1.15.049.289.022.193-.133.355.031.562.091 0 .005.003.01.004.013l-.323.166zm-.312.469l-.324.006c-.01-.064-.016-.125-.024-.188-.147 0-.171.124-.339.07.089-.17.096-.16.047-.345.173-.075.182.011.33.137.076.007.151.017.229.026-.002.035-.002.067-.002.1.08.075.097.082.083.194zm.087.14c-.018.011-.018.011-.146.03.034-.021.065-.073.106-.073.013.016.028.03.04.044zm.122.01c.096.06.204.118.287.194 0 .052-.093.13-.125.168.039.14.039.14.042.182h-.108c-.043.058.005.216.039.274.143.088.143.088.152.098-.035.05-.086.087-.086.15.273.21.518.294.847.42.1-.01.13-.084.185-.168.042-.007.042-.007.08 0a1.368 1.368 0 0 0-.005.104c-.184.042-.013.664-.002.732-.025-.008-.039-.045-.05-.071h-.037c-.245.267-.49.43-.797.627-.281.082-.281.082-.292.094-.095.574-.095.574-.108.612-.093.055-.182.11-.27.164-.241-.202-.335-.622-.448-.919l-.088-.503c.036-.175.156-.335-.054-.39-.048.038-.058.086-.08.145-.054-.005-.105-.007-.156-.01l-.082-.145c.058 0 .139-.061.139-.12-.039-.037-.138-.03-.187-.036-.024-.036-.049-.062-.049-.106.16-.146.27.071.398-.014 0-.155-.112-.29-.13-.442.1-.1.146.014.27.014.135-.11.276-.222.414-.33 0-.04 0-.076-.01-.115.073-.004.073-.004.105-.015 0-.09-.1-.177-.159-.244.023-.081.047-.163.069-.247.257-.048.257-.048.283-.06.003-.014.006-.031.013-.043zm.962 1.291c.064.001.128.007.194.01-.01.053-.048.091-.079.127-.295-.122-.549-.186-.792-.385.177-.241.521.133.677.248zm-.702 2.565c-.04.006-.074.008-.109.017l-.044-.038c.008-.187.008-.187.018-.255.05.055.102.11.153.163a1.011 1.011 0 0 0-.018.113zm-1.698-2.644c-.171-.06-.34-.119-.51-.176 0-.137.23.037.23-.12-.062-.166-.062-.166-.153-.366.153.048.37.148.529.148l.089-.154c.35-.068.313.084.45-.22l.127-.008c.067-.092.093-.121.096-.231.325-.068.252-.094.15.21-.002.029-.005.053-.005.078.02.029.164.177.152.203-.028-.022-.068-.082-.108-.042.004.048.033.128.01.168l-.34.268c-.083.015-.148-.054-.24-.054-.189.216-.028.27.043.544h-.015c-.08-.041-.17-.1-.256-.115-.034.031-.066.061-.1.095-.053-.015-.12-.176-.15-.228zm-.342-.959c-.043-.042-.085-.09-.127-.132.038-.12.09-.354.267-.354.164.076.268.085.402-.063l.449.14c.056-.028.112-.058.17-.086.017.137.017.137.03.166.03.006.03.006.327.011-.083.082-.318.015-.394.119 0 .086-.002.124-.05.192h-.136c-.035.07-.067.14-.102.211-.242.008-.242.008-.34.016-.029.051-.058.1-.088.147-.012 0-.024.006-.033.008-.17-.058-.34-.115-.51-.17 0-.073.135-.111.135-.205zm-1.315-3.036c.015.073.033.143.038.22l-.038-.22zm-.238-.282h.07v.149h-.023c-.015-.004-.028-.011-.043-.017-.001-.042-.004-.089-.004-.132zm.234 1.534c-.243-.135-.424-.413-.699-.424-.084-.046-.17-.09-.252-.136-.08-.176.01-.183-.185-.244l-.058-.149.037-.01c0-.044.001-.05-.027-.086h-.019c-.033.052-.476.626-.427.783.068.04.14.071.161.088.04.074.164.307.254.288.001.011.001.011-.045.159.06.134.06.134.096.191.087 0 .192-.034.277-.057 0-.036-.01-.06-.023-.1.05.016.098.032.15.052.127.324.216.74.523.946.033.27.053.557.065.829.117.095.747.46.339.635-.247-.042-.437-.132-.666-.234-.09.017-.174.066-.256.102-.066-.25-.22-.292-.446-.335a60.085 60.085 0 0 1-.123-.62c.008-.104.04-.314.048-.433-.064-.65-.064-.65-.068-.765.04-.055.066-.078.072-.148-.046-.026-.09.025-.125.048.01-.18.01-.18.008-.296h-.05c-.063.29-.096.602-.139.903-.035-.004-.068-.01-.1-.013-.515-.722-.515-.722-.525-.748.147-.267.301-.533.45-.8.06.147.06.147.07.16.23-.38.468-.756.72-1.117-.02-.063-.043-.142-.09-.19-.03.007-.062.016-.094.022 0-.035.014-.077-.007-.105h-.049a1.995 1.995 0 0 0-.075.145c-.078-.01-.076.013-.081.085-.01-.005-.02-.009-.028-.01.014-.024.008-.072 0-.098.051-.15.045-.222.193-.275.142.08.163.103.203.262l.153.126c-.007.04-.012.081-.022.122-.013-.024-.023-.028-.045-.034-.075.108-.075.108-.086.137.063.053.133.133.223.108.038.092.14.091.228.11.232.215.155.588.555.572.024-.036.024-.036.032-.036.03.044.058.092.09.137l-.025.016c.01.221.008.26-.112.437zm-.86-.124a.783.783 0 0 1 .03-.037.284.284 0 0 1 .006.048h-.03c-.004-.004-.006-.008-.006-.01zm-.046.176c-.002-.033-.004-.068-.004-.101.047 0 .094 0 .142.002.095-.147-.092-.311.201-.306.096.088.19.175.29.262-.006.012-.006.012-.055.032-.179.308-.186.062-.415.214-.013-.076-.093-.08-.16-.103zm-.066.305c-.055.01-.106.02-.158.033-.085-.186-.03-.326.142-.44.003.05.008.098.013.15.05.017.104.037.16.055.01.068.01.068.009.106-.099-.033-.099-.033-.2-.057-.005.01-.012.019-.017.03.015.042.032.081.05.123zm.824.13c0 .239.028.479.024.716-.015-.006-.03-.012-.044-.015-.028.015-.031.019-.035.051h-.014c-.07-.074-.141-.152-.21-.223-.084-.222-.308-.566-.262-.807.294-.021.258.019.412-.216.105-.008.136.01.226.065.027.234.042.253-.097.43zm.583 1.742c-.002.02-.131.181-.143.187l-.092-.078c0-.028.206-.096.235-.109zm-.757.919c-.322-.05-.571-.157-.875-.29.003-.163.007-.326.013-.487.228.036.31.103.368.332.086.056.222-.094.322-.094l.324.153c.016.103.038.22.03.326-.064.025-.115.051-.182.06zm-.636.907c-.13.014-.262.03-.39.042a27.3 27.3 0 0 1-.112-.466c.098 0 .2.09.306.1.48-.068.391-.046.09-.42.123.051.382.177.57.254-.024.231-.289.35-.464.49zm-1.08-1.15c-.058-.392-.058-.392-.054-.44.127-.028.086-.081.09-.212.291 0 .237-.102.399-.379.007 0 .013-.006.02-.006.006.028.006.028.022.446.092.194.221.367.2.584-.063.025.153.344.191.401.088.104.178.212.265.322-.09.01-.183.029-.271.048-.414-.175-.542-.4-.862-.764zm.314 1.274c-.093.046-.06.086-.113.156-.203-.19-.637-.795-.575-1.044.044.023.075.048.127.048.034-.044.026-.17.026-.231-.013-.01-.013-.01-.197-.052-.007-.156.035-.248.088-.398.126.17.212.271.25.475-.355.259.315.762.394 1.046zm.189.925c-.006.001-.01.005-.012.007-.091-.047-.19-.12-.288-.135a6.99 6.99 0 0 1-.455-.63 42.07 42.07 0 0 0-1.103-2.702c.04.03.122.125.138.137.109-.056.023-.307.17-.32.113.288.238.448.442.688.185.406.238.382.108.774.012.216-.008.19.207.232l-.004.094c-.048-.019-.13-.084-.179-.054.048.483.41.984.748 1.303.087.2.16.4.228.606zm-1.928-3.66c.02-.095.128-.182.188-.256-.016-.13-.08-.264-.125-.39-.306-.163-.204-.172-.095-.452 0 .086-.026.261.023.33h.031c.045-.06.023-.34.023-.419h.017c.001.04.005.078.03.111.052 0 .094-.036.134-.072-.002.18-.006.358-.006.54.139.131.221.276.415.297 0 .132 0 .26.002.392.127.438.127.438.121.447a2.113 2.113 0 0 1-.337-.589c-.163-.027-.191.16-.224.276h-.016a7.873 7.873 0 0 0-.18-.214zm-.049-.088c-.029-.195-.067-.39-.082-.587.185.092.185.202.249.396-.048.055-.13.124-.15.191h-.017zm-.117-.87a10.69 10.69 0 0 1 .001-1.355c.087.326.192.704.153 1.043-.113.206-.113.206-.154.312zm.342-3.093c.02.099-.006.296.123.28.313-.662.313-.662.35-.717a.094.094 0 0 0 .024.024c-.156.487-.238.96-.327 1.469-.097.122-.097.122-.115.13-.05-.238-.05-.238-.067-.28h-.046c-.057.262-.056.384-.255.56.064-.483.134-1.014.313-1.466zm.451-1.069c-.015.078-.025.154-.04.232.1.091.145-.118.226-.118-.009.055-.027.102-.02.154.004.003.011.01.022.016-.037.101-.07.201-.103.302-.032-.017-.075-.049-.11-.026-.107.214-.215.437-.32.655-.046-.227-.046-.227-.052-.323a5.51 5.51 0 0 1 .397-.892zm.102-.13c.057-.018.113-.037.173-.054.005.058.014.1-.015.154-.078 0-.15.1-.206.15.015-.083.031-.169.048-.25zm.2.23c-.018.009-.033.023-.05.038a.905.905 0 0 1 .023-.112h.01c.004.025.01.049.017.074zm.197.292c.006.07-.01.127.065.127l.147-.15c.113.201.128.46.174.688-.055.063-.154.058-.213.102-.167.322-.296.573-.528.845-.042.127-.051.275-.071.405-.004.004-.01.005-.01.008-.088-.069-.175-.137-.263-.203 0-.664.27-1.362.477-1.982.022-.013.038-.029.062-.029.044.102.04.19.16.19zm.054-.54c.047.086.067.093.163.074-.022.12-.029.41-.143.478-.019-.089-.02-.081-.11-.096-.035-.08-.138-.262-.119-.347.056-.03.14-.11.209-.11zm-.045 1.772c.07-.136.14-.268.213-.398.096 0 .113 0 .183-.065.079.08-.048.175-.094.229-.18 0-.143.012-.18.187l-.122.047zm-.028 2.387c-.165-.112-.238-.677-.276-.896.151-.024-.07-.573-.053-.663a.115.115 0 0 1 .026-.014c.009-.057.024-.363.031-.386.128-.148.23-.32.412-.397.013.083.013.083.043.933.033.03.063.048.101.067.044-.021.073-.08.106-.118.113 0 .173.39.173.494-.546.967-.546.967-.563.98zm-.813.032c.025-.17.082-.33.112-.495.052-.014.103-.025.158-.037.09-.174.183-.35.275-.52.006.016.01.032.015.053-.149.028.119.893.146 1.006-.038.106-.074.216-.113.322-.262-.138-.258.25-.26.369h-.032c-.118-.028-.216-.172-.3-.256v-.442zm-.19-1.188c.012.355.003.398.195.67-.018.164-.03.325-.166.43-.015-.07-.015-.07-.033-.095-.01-.004-.022-.004-.033-.004-.03-.372-.13-.675.037-1.001zm.05-.176h-.034c-.053.095-.1.193-.15.292-.006 0-.01.003-.016.007-.03-.118-.06-.23-.087-.344.181-.177.218-.206.275-.453.044.226.046.236.204.058.306.232.412.297.45.684l-.27.517c-.128.041-.128.041-.167.044-.055-.074-.108-.15-.16-.224-.053-.182.067-.433-.045-.581zm1.229 3.387c-.038.001-.067.001-.093.026.055.44.055.44.053.465-.208-.284-.316-.438-.462-.765-.057-.199-.117-.398-.172-.594-.004-.23-.005-.455-.009-.68.043-.033.086-.06.13-.088.028.034.033.042.078.047l.147-.37c.035.027.044.034.08.039.038-.044.073-.09.108-.135.427.604.427.604.507.71.038.003.078.008.119.013 0 .103.028.204.033.306-.01.054-.033.42-.093.455-.07.121-.139.244-.207.365-.065 0-.127 0-.191.003-.039.038-.024.147-.028.203zm.195-6.494c.122-.043.245-.085.37-.127.025-.073.043-.244.159-.244-.035.269-.145.796-.457.888-.014.027-.033.058-.066.065-.034-.012-.065-.029-.094-.04a2.414 2.414 0 0 1-.033-.195c.022-.123.107-.22.121-.347zm.323-.25c.001.022.001.022-.006.064a3.68 3.68 0 0 0-.23.084c.071-.078.138-.105.236-.149zm.286.379l.183-.08c.064-.074.135-.263.206-.3 0 .037.001.072.004.11.033.032.06.008.09-.014.025.167 0 .12.207.182.024.034.052.065.076.1.012 0 .082-.018.082.008-.273.059-.213.254-.373.34-.062.003-.125.004-.187.008-.096.114-.196.223-.29.336l-.07-.047c.017-.249-.036-.393.072-.643zm.66-.568c.051.037.072.063.131.055.014-.057.024-.111.037-.167.077.016.153.03.231.043-.11.11-.189.164-.23.312-.043.01-.084.019-.123.033-.045-.239-.045-.239-.045-.276zm.226.564a.186.186 0 0 1 .048-.028l.006.022c-.019.002-.037.003-.054.006zm-.128.353a1.052 1.052 0 0 0-.064.614c-.01.027-.01.027-.05.08-.06.008-.115.014-.17.017-.01.013-.022.084-.028.084v-.015l-.059-.03v-.041c.03-.015.057-.03.084-.04-.007-.093-.007-.093-.045-.334.071-.086.053-.145.056-.26.124-.074.128-.085.17-.223.1-.066.207-.16.34-.143-.016.034-.019.044-.005.083.06 0 .106-.033.162-.062-.107.19-.179.216-.39.27zm-.255 1.527c0-.152.172-.358.067-.476-.011-.06-.011-.06-.019-.262.066-.016.066-.016.121-.013.096.193.17.375.304.545.096.19.047.24-.025.444a7.55 7.55 0 0 0-.216.114c-.078-.116-.154-.235-.232-.352zm-.042.065l.207.312c-.021.046-.141.043-.193.093-.097-.082-.152-.114-.152-.248.035-.044.088-.14.138-.157zm-.227-.068c.05-.138.165-.36.307-.406-.037.128-.13.319-.13.446l.022.021c-.043.044-.043.044-.106.09-.03-.053-.062-.1-.093-.151zm.216-.697c.001.08.03.18.03.246-.05.049-.145.173-.21.186-.008-.007-.017-.011-.025-.016 0-.084.056-.19.082-.27.072-.013.091-.085.123-.146zm-.823-.802c.036-.06.156-.21.23-.326h.048c-.049.13-.057.22-.07.36-.034.02-.066.038-.096.06-.036-.044-.06-.079-.112-.094zm.242 2.027h-.013c-.012.053-.035.073-.065.117a.27.27 0 0 1 .03-.128c.048.002.048.002.048.01zm.372-1.476c-.25 0-.327.607-.35.79a.221.221 0 0 0-.052.007c-.032.045-.07.116-.124.127.164-.22.174-.45.228-.72.055-.086.213-.305.118-.402.083-.101.169-.2.251-.3l.093-.008c0 .106.022.167-.053.241l.049.314c-.031.012-.057.028-.089.047 0 .037 0 .072.005.113l.043.032c-.01.09-.053.053-.095.113-.034.113-.088.225-.1.344.018.012.04.022.062.035 0 .265-.101.118.031.382h-.017c-.076-.056-.105-.081-.195-.095.097-.159.097-.316.119-.504.067-.196.186-.332.076-.516zm.649-.314c-.034.255-.1.433-.012.668a.276.276 0 0 0-.05.008c-.126-.255-.062-.27-.108-.543.046-.116.075-.222.1-.342.101-.019.248-.134.318-.134.006.004.01.008.018.017-.024.171-.138.223-.266.326zm.539-1.55a1.5 1.5 0 0 0-.033.12c-.125.008-.116.01-.22.062-.002-.025-.002-.046-.002-.067.097-.038.156-.09.255-.116zm-.081 1.678c.03 0 .057.003.087.005 0 .113.138-.01.19-.02.032.085.065.166.1.25-.07.12-.186.008-.247-.04-.094.048-.187.198-.253.285-.041.015-.041.015-.27.05a.895.895 0 0 1 .004-.63c.064-.053.13-.105.193-.152.174.043.126.139.196.252zm-.102-.719c.065-.05.142-.138.23-.1v.017a.357.357 0 0 1-.23.083zm.284-.99a.078.078 0 0 0-.01.023c-.013-.003-.02-.01-.03-.01.013-.006.026-.01.04-.014zm.107.591c.074-.008.249.014.249-.082-.014-.01-.027-.018-.04-.025.002-.008.01-.013.013-.015.01.001.02.002.027.005.018.046.018.046.039.073.01 0 .018.002.031.008a.088.088 0 0 1 .026-.022l-.024-.112c.007 0 .015.004.024.006l.01.025c.112.004.148-.006.226.07-.156.186-.144.214-.374.24-.005-.013-.009-.022-.014-.03-.053 0-.075 0-.128.02-.033-.02-.065-.044-.1-.061 0-.037.018-.064.035-.1zm1.11-.066v.011c-.055.013-.11.032-.163.045a1.27 1.27 0 0 1-.085-.059c.085 0 .167 0 .248.003zm-.286-1.456c.057-.037.107-.093.169-.112-.001.101.015.042.041.096-.039.04-.055.04-.049.102.028.009.028.009.065.003-.02.059-.125.11-.183.134a.483.483 0 0 1-.052-.027c.003-.065.005-.131.009-.196zm1.696.926l-.041.004c.006-.009.006-.009.04-.004zm1.621 4.811c.08-.042.16-.085.245-.127.192.013.38.03.578.03.07-.091.01-.228.076-.337.074.007.074.007.201.04.16.169.133.229.322.094.136.012.42.086.54.044.2-.143.264-.19.504-.22.047.302.009.23.273.176.026.029.054.057.083.086-.012.04-.074.074-.109.1-.089.101-.175.206-.261.31-.073.01-.151.015-.217.048 0 .058.033.104.06.156 0 .142-.5.439-.608.458-.276-.161-.498-.1-.784-.049-.097-.076-.19-.15-.284-.222-.324-.094-.324-.094-.367-.113-.043-.193-.086-.33-.252-.459v-.015zm4.02-.13c-.004.077-.004.077.007.282-.098.21-.186.222-.007.354-.05.17-.04.164-.202.212 0-.101.02-.212-.104-.205.024-.109.043-.216.065-.323.039-.007.076-.01.114-.013.029-.1.029-.201.068-.3l.06-.007zm.06.697c.02.007.02.007.207.204-.026.144-.04.229-.168.314-.063-.214-.117-.308-.04-.518zm.319 3.56h.023a.166.166 0 0 0-.023.032v-.032zm.12-.309c0 .007.006.01.008.018h-.024a.043.043 0 0 1-.015-.01c.022-.01.022-.01.032-.008zm.055-2.805c.041.007.041.007.093.035 0 .048-.003.1-.006.152-.004 0-.008 0-.01.004a.29.29 0 0 0-.091-.164.152.152 0 0 1 .014-.027zm.35-.542c0-.091 0-.091-.012-.219l.037-.002c.146-.256-.013-.483.006-.75.178.132.238.414.265.632-.071 0-.087.187-.105.242-.229.061-.07.075-.113.238-.005 0-.01.003-.015.005-.02-.021-.035-.046-.051-.068h-.042c-.084.083-.167.17-.25.253.053-.18.13-.213.28-.331zm-.104-1.085c0 .016 0 .016-.01.02l-.016-.02h.026zm.116-.472l.063.014c-.082.216.012.249-.214.362.005-.042.013-.081.02-.12-.021-.045-.104-.165-.092-.21.113.01.13.017.223-.046zm-.025 5.404c-.113-.02-.1.12-.101.194l-.088.007c0-.05 0-.092-.036-.127.025-.028.025-.028.13-.233.02.004.038.008.058.014.018.045.062.103.037.145zm-.4.164l.074-.092c.008 0 .011 0 .015.002-.032.028-.063.059-.09.09zm-4.234-1.462c-.1.004-.2.01-.295.016-.051-.177.283-.02.295-.016zm1.266.643l.098-.013c.014-.023.006-.052 0-.072.026-.005.053-.01.08-.012.078.128.117.152.248.229 0 .041-.029.072-.026.119.079.05.478.264.43.404-.056.026-.105.056-.158.084-.04-.249-.072-.258-.28-.436-.112.025-.218.072-.327.117-.003-.068-.006-.13-.012-.195a.458.458 0 0 1-.112-.112c.02-.039.036-.078.059-.113zm.825-.05c0 .105-.177.244-.216.359-.193-.126-.1-.054-.1-.206-.09-.048-.26-.116-.26-.239.33-.148.251-.123.576.086zm.053.767a1.601 1.601 0 0 0-.013.205c-.148.112-.293.221-.438.334a.243.243 0 0 0-.09-.075c-.075-.352.017-.332.366-.376.12-.07.12-.07.175-.088zm.192-.058c.028.121.055.24.087.363-.12.114-.221.3-.392.29-.035.05-.035.05-.07.088-.003-.049-.003-.049-.015-.079-.04-.014-.168-.027-.17-.036.42-.324.42-.324.431-.342v-.262c-.063-.11-.063-.11-.068-.136.063.035.127.076.197.114zm.197-.604a.45.45 0 0 1-.098.177c-.02 0-.04.003-.058.004-.099-.074.098-.156.156-.18zm-.817 2.185c-.242-.081-.261-.113-.376-.343.116-.1.234-.034.353.062.005.127.014.154.094.247-.006.03-.042.032-.07.034zm-.399-.423c-.005-.007-.006-.014-.01-.02.018-.002.018-.002.036.008-.008.005-.018.006-.026.012zm-.265-.133c0-.051 0-.051.032-.199.053.077.173.199.193.284a.732.732 0 0 1-.225-.085zm.059-.525c-.02.03-.02.03-.046.05-.061-.178-.061-.178-.067-.219.036.057.074.111.113.169zm-.022.24c.002-.063.008-.102.045-.154.003.01.003.01-.045.155zm-.169-.903c.008-.18.15-.389.323-.248.02.08 0 .182.03.252.13 0 .25-.097.377-.116.125.116.223.174.21.367-.302.03-.394.06-.338.396h-.019c-.133-.11-.265-.178-.329-.019-.154-.225-.154-.225-.176-.28.036-.184.035-.205-.078-.352zm2.417 1.046c.046-.062.152-.242.222-.265.056.055.08.052.16.059-.125.116-.127.149-.293.186-.08.113-.16.23-.24.347-.124.057-.244.116-.368.176.136-.202.31-.386.52-.503zm-8.991.664c.035-.025.072-.007.115-.003.016-.018.016-.018.025-.042a.56.56 0 0 1 .054-.002c.023.019.023.019.1.15-.05.104.016.224 0 .333-.192-.174-.34-.272-.43-.515.023.006.023.006.136.08zm11.873-11.359c-.77-.296-1.584-.361-2.401-.394.034.028.072.054.112.085-.078 0-.151-.085-.25-.085 0 .085.087.177.13.25-.067-.017-.134-.038-.2-.038a.062.062 0 0 0-.021.03c.02.03.02.03.069.071-.02.03-.023.036-.023.073a.615.615 0 0 0-.076-.01c-.049-.033-.448-.42-.457-.185.075.146.075.146.08.175-.031 0-.042 0-.063.022l-.204-.31h-.052c-.01.012-.01.012-.017.187l-.09.078c-.144-.06-.327-.2-.438-.31-.636.035-1.269.131-1.9.223a.235.235 0 0 0-.028-.047l.01-.015a19.524 19.524 0 0 1 1.916-.24c-.044-.128-.105-.23-.172-.35.083-.124.653-.17.8-.268 0-.025 0-.051.007-.078.051.067.105.132.159.2.013.06.018.123.065.166-.008.033-.035.033-.058.057 0 .012 0 .023.002.038.021.013.021.013.594.201.671.036 1.322.08 1.98.227.194.053.353.106.421.124a8.446 8.446 0 0 0-2.655-2.023c-.1 0-.202.018-.294.046.025.012.047.026.07.036-.07.004-.263-.043-.304.043-.048-.008-.096.023-.14.04.011.016.025.029.04.044-.02 0-.02 0-1.474-.61-.524-.087-1.05-.173-1.572-.255l.14-.001v-.18c-.036-.002-.073-.002-.112-.002-1.345 0-2.615.32-3.742.885 1.012.035 1.911.573 2.753 1.093.096-.004.18-.072.278-.04a.335.335 0 0 0-.063.03v.046c.055.032.129.02.188.035-.179.158.112.376.198.319-.003-.064.011-.11-.054-.125.039-.09.055-.093.154-.133a.36.36 0 0 1-.004-.051 1.123 1.123 0 0 1-.081-.045c.01-.025.024-.045.036-.07.046 0 .082.003.116-.031.02.047.02.047.02.065l-.054.036c-.006.112.014.097.068.185-.019.016-.013.047-.004.066l.083.001a.09.09 0 0 0 .042.044c-.005 0-.01.003-.013.005-.043-.016-.072-.036-.12-.024-.001.019-.003.038-.007.055-.035 0-.05-.003-.076.02 0 .01.003.019.006.029-.04.006-.078.014-.115.022.09.077.179.15.269.228-.02.014-.042.024-.063.036-.097-.082-.357-.348-.447-.348 0 .033.007.043.023.076-.073.13-.241.054-.241.162l.078.053c-.029.01-.056.016-.056.052.504.1.504.1.52.112a.223.223 0 0 0-.029.053c-.226-.038-.378-.1-.588-.023l.015-.085c-.071-.008-.127.001-.193-.003-.007.008-.007.008-.018.047-.049-.017-.087-.032-.137-.032-.034.064.043.108.09.138l-.021.057c-.069-.036-.075-.074-.111-.131h-.047c-.007.01-.015.018-.02.032-.119-.058-.216-.152-.338-.076-.03-.145-.08-.03-.18-.03v-.04c-.007-.007-.015-.014-.025-.02-.069.024-.069.024-.116.03.005-.036.005-.05-.032-.06-.007-.046-.007-.046-.018-.07-.16-.015-.318-.03-.473-.042-.01.02-.01.02-.03.034a.174.174 0 0 0-.028-.04c-1.187-.068-2.669-.177-3.758.413a8.325 8.325 0 0 0-1.84 7.13c.072.186.156.37.254.56 0-.025-.057-.221-.057-.25.37.828.708 1.673 1.03 2.517.01.037.015.07.024.105a4.255 4.255 0 0 1-.194-.473 10.98 10.98 0 0 1-.719-1.612c-.09-.158-.172-.312-.25-.471a8.287 8.287 0 0 0 1.22 2.666.505.505 0 0 1-.026-.048c.048-.013.034-.051.056-.057.036.067.243.29.125.323a8.483 8.483 0 0 0 2.748 2.402c-.415-.528-.49-1.2-.49-1.875a10.862 10.862 0 0 1-1.713-1.095c-.02-.003-.039-.009-.055-.01-.143-.223-.524-.644-.465-.913.123-.088.079-.088.053-.25.179.19.385.384.528.597.042.177.08.355.122.532-.038.007-.076.01-.113.016.52.4 1.06.747 1.65 1.037.038-.707.164-1.382.304-2.08-.04-.003-.082-.006-.122-.006-.1.114-.219.094-.35.05l-.03-.324c.247.032.247.032.292.03.17-.19.17-.144.143-.365.027-.032.05-.065.081-.095.034.056.068.114.106.169h.015l.074-.267c0-.289-.131-.256-.374-.335l-.15-.245c-.026-.223-.023-.34-.145-.513a108.1 108.1 0 0 1-.04-.66c.04-.057.083-.113.127-.17-.007-.204-.017-.259.102-.425.168.156.438.058.627.178.142.406.588.683.641 1.12-.104.072-.104.072-.201.151-.088.246-.15.26.024.44-.047.055-.15.124-.15.2.092.055.178.344.223.449-.176 0-.094-.097-.237.08-.081-.048-.3-.224-.388-.224-.056.233-.1.29.024.49-.059.032-.115.067-.172.102-.167.756-.333 1.52-.352 2.293 1.445.696 2.947.993 4.54 1.011-.005-.903-.006-1.803-.008-2.703a.186.186 0 0 0-.041.006c-.028.045-.052.094-.078.143-.043.006-.083.012-.124.014l-.091-.483a.372.372 0 0 0 .031-.157c.03.001.058.008.089.01.067.164.087.14.27.17a1.847 1.847 0 0 0-.084.084c0 .073.08.125.147.125.01.088.07.339.22.188 0-.076 0-.152.002-.224.141-.085.187-.251.26-.399a5.32 5.32 0 0 1 .21-.186c.056.016.056.016.132.043.004.12-.12.37-.075.443.041.004.08.004.124.01.09.184.061.207.257.216-.016.132-.227.249-.323.324-.043.225.097.285.066.494-.032-.01-.145-.236-.224-.153-.028.128-.122.2-.263.178.005-.323-.06-.334-.297-.58-.023-.053-.076-.226-.13-.239l.001 2.676c.445-.022.887-.063 1.327-.126-.217-.166-.434-.337-.648-.506.264.017.408.123.637.251.064.008.26.018.3.058a.066.066 0 0 0 0 .074c.043.003.043.003.084-.01a.777.777 0 0 0 .009.07c.287-.07.583-.136.867-.22a.462.462 0 0 0-.05-.072c.024-.04.05-.077.075-.113h.031c.309.165.656-.276.81-.501.094-.057.182.053.256.11a.502.502 0 0 0-.187.252c.292-.127.292-.127.555-.255a12.143 12.143 0 0 0-.113-1.487c-.007 0-.018 0-.026.004-.023-.084-.023-.071-.12-.077-.012-.02-.018-.04-.024-.058.083-.023.025-.26.025-.306a.22.22 0 0 1 .057-.023c0-.081-.076-.656-.167-.771-.013.086-.023.169-.031.254l-.056-.071c.026-.058.046-.165.089-.206-.053-.203-.103-.407-.155-.608h-.01c-.008.24-.164.375-.128.609l-.272.434c-.085.052-.17.104-.252.157-.03-.024-.042-.026-.079-.026-.033.056-.033.056-.07.142-.095.052-.269.106-.31.206-.012-.015-.02-.034-.03-.048-.095 0-.189.044-.279.07-.103-.068-.255-.2-.376-.22-.153.07-.31.142-.467.198l-.008.05c-.069-.007-.138-.009-.204-.015-.063-.135-.06-.208-.2-.217.03-.106.12-.307.07-.415a73.143 73.143 0 0 0-.287-.128c-.026-.032-.104-.17-.137-.074.028.054.14.147.149.176-.184.17-.253.29-.358.516-.155.081-.102.083-.102.274h-.07c-.02-.198-.02-.198-.03-.215-.039-.004-.084 0-.114-.027.004-.014.004-.014.125-.123v-.024c-.066-.05-.204-.052-.288-.063l-.06-.132-.04-.008c.04-.009.33-.015.348-.024 0-.14-.185-.237-.309-.214-.43.233-.686-.283-1.079-.314-.064-.038-.125-.081-.191-.12-.024-.112-.024-.112-.024-.154.115.004.115.004.13-.01 0-.08-.04-.155-.052-.235.101-.107.18-.13.078-.248-.15-.092-.302-.186-.45-.282 0-.045 0-.086.002-.127-.032-.034-.065-.062-.094-.09.035-.199.108-.14.327-.17.167-.055.3-.197.476-.222.01-.018.01-.018.034-.358.255-.057.226-.017.289-.266.21-.016.27.047.307-.158.043-.021.093-.058.143-.058.058.065.117.131.176.2.089.372.085.282.49.403.084.07.174.145.26.219.143-.026.285-.047.424-.067l.378.11c.227 0 .546-.316.696-.48-.005-.049-.056-.126-.049-.155.055-.014.11-.026.166-.034.037-.042.43-.437.43-.47-.172-.177-.127-.185-.352-.111-.01-.01-.01-.01-.03-.157.267-.076.079-.341.079-.523.032-.019.032-.019.148-.119h.259c.087.087.169.175.255.266h.3c.026.028.05.056.075.086h.042c.053-.084.104-.165.16-.244.013.028.013.028.13.444-.17.18-.154.146-.038.37-.088.034-.11.23-.116.317-.203.04-.125.228-.2.404-.142.178-.132.137-.054.348.438 1.408.835 2.866.863 4.354.084-.043.167-.083.253-.124.007.002.007.002-.25.138v.09a9.26 9.26 0 0 0 2.928-2.327c0-.029 0-.054.005-.083-.198-2.063-1.15-4.139-2.62-5.607-.164-.126-.335-.252-.502-.377-.122-.278-.322-.417-.557-.626-.084.135 0 .463.166.503-.009.025-.018.047-.026.074-.067-.012-.148.066-.206.101l.006.104c-.076.08-.151.163-.226.244 0 .287.004.573.008.861.034.026.085.004.127 0 .02.026.045.05.068.078h.081c.04-.052.066-.128.09-.188.021 0 .046.005.07.005-.005.036-.04.055-.018.092.058.016.119.029.176.043l.232.442c.023.335.109.722-.027 1.026-.14 0-.159-.036-.19.096-.117-.201-.128-.165.027-.332a1.713 1.713 0 0 0-.163-.594h-.048c-.059.088-.12.18-.178.272-.02-.02-.038-.042-.058-.061h-.294c-.087-.091-.175-.178-.263-.266-.29 0-.287-.02-.512.164 0 .123.058.285.073.417-.117.1-.272.068-.411.104-.356.247-.4.138-.812.154-.083.05-.083.05-.106.055-.145-.154-.194-.168-.408-.214-.109.104-.094.21-.094.35a2.799 2.799 0 0 1-.51-.04c-.126.019-.26.12-.378.172-.03-.033-.056-.065-.083-.094-.137 0-.152-.041-.25-.138-.107-.04-.19 0-.261-.097-.038 0-.049.006-.084.018-.034-.107-.104-.421-.175-.49-.034 0-.034 0-.246.043-.004-.093-.125-.093-.198-.12-.052-.155-.052-.155-.066-.174-.034-.01-.034-.01-.746-.024-.019.029-.015.076-.015.112-.076.01-.106-.004-.118.07a.178.178 0 0 0-.08.022c.004.05.011.098.018.15-.033-.003-.064-.004-.096-.008-.074-.176-.11-.142-.305-.157-.079-.104-.161-.204-.241-.306-.092.002-.23-.02-.308.02-.074-.072-.21.086-.272.13 0 .116.016.256-.02.366-.015-.007-.015-.007-.037-.038-.066 0-.203.134-.227.202l-.014.42a.312.312 0 0 0-.06.007c-.203-.346-.39-.589-.42-.99h.06c.063-.08.043-.177.14-.238.39-.122.41.027.154-.486.017-.165.082-.255-.016-.385a.44.44 0 0 1 .026-.063c.241.099.208-.299.219-.457.15-.047.298-.09.447-.132.127-.089.054-.323.045-.439.084.036.19.095.286.095.127-.135.254-.27.383-.401-.036.192-.033.194-.186.329 0 .075.012.16.046.226.013 0 .028 0 .045.005a.958.958 0 0 1 .083-.112c.022.054.046.107.07.162.015 0 .028 0 .043.003.026-.05.052-.1.076-.15.049-.008.049-.008.134-.008.001.056-.01.116.06.116.037-.05.075-.102.116-.154.01.136.01.136.018.146.138-.003.427-.039.473-.036-.017.028-.026.06 0 .086.051 0 .096 0 .145-.015.456-.769.922-1.517 1.435-2.252.018-.011.062.012.07.028a30.39 30.39 0 0 0-.366.524c-.146.223-1.148 1.665-1.057 1.799.073-.011.123-.076.18-.126.07.084.07.084.22.29.061.009.084-.031.125-.07 0-.055-.021-.092-.045-.144 0-.15.126-.27.24-.348.016.01.04.019.059.028-.053.2-.108.4-.16.603-.013.013-.16.073-.22.105 0 .076.085.144.157.144.043-.05.221-.3.279-.3-.003.044-.003.096-.003.145.052.051.142.093.142-.011l-.038-.02c.004-.05.01-.099.012-.15-.05-.03-.108-.057-.162-.084a.516.516 0 0 1 .085-.33c0 .146.01.134.143.203.031-.02.031-.02.04-.042a1.332 1.332 0 0 1-.057-.113c.06-.057.15.026.205.06-.028.078-.103.232.045.232.13-.131.03-.306-.03-.423a.046.046 0 0 1 .01-.017c.216-.057.222-.016.252-.225.056-.03.114-.065.171-.097.001-.53.005-1.06.01-1.59h.063c.003.524.005 1.047.01 1.57.083-.004.186.029.186-.073.033-.016.049-.052.062-.09.007.007.007.007.064.007.035.108.124-.004.198-.004.195.111.036.254-.055.408.103.066.209.058.23-.096.018.023.036.048.059.074h.042c.11-.173.237-.026.381-.143 0-.044-.014-.07-.004-.113a32.283 32.283 0 0 0-.953-1.579c.008-.012.008-.012.061-.037.341.522.686 1.055.966 1.609.085.073.268.291.41.222.005-.052-.018-.102-.032-.151.114.008.156-.066.238-.14-.009-.082-.045-.106-.09-.173.024-.051.159-.11.208-.143l.052.042c.07-.009.07-.009.21-.042.038-.07.078-.142.119-.21.131.003.26.074.248-.089-.675-.47-1.41-.803-2.186-1.066a.248.248 0 0 1 .022-.066 9.12 9.12 0 0 1 2.193 1.058c0-.031.003-.063.008-.091.115-.02.115-.02.148-.037 0-.016 0-.031.002-.046l-.15-.096a.588.588 0 0 1 .49-.429c.014-.02.014-.045.006-.068-.026-.006-.058-.006-.069-.028l.04-.065c.055 0 .158.104.204.14-.049.046-.075.104-.105.17-.033-.007-.083-.028-.11 0 0 .013.003.025.005.045l.157.106c.044.129.044.129.059.144.08.002.163.004.246.01.006.02-.004.024-.016.04 0 .148.209.396.288.526-.084.052-.084.052-.096.074.036.177-.01.585.295.53.037.022.072.044.108.068 0 .018-.005.04-.007.062.198.17.22.271.299.522 1.354 1.4 2.251 3.062 2.65 4.972.06.406.094.73.103.757.429-.608.743-1.196.944-1.899a8.333 8.333 0 0 0-1.903-6.474zM12.203 21.963l.055.086c-.02-.028-.036-.057-.055-.086zm13.577-.395c-.174.15-.249.38-.453.514-.024-.046-.05-.089-.072-.132-.083-.016-.195.066-.27.102.088-.13.183-.26.275-.391.083-.044.656-.392.717-.375-.013.016-.013.016-.013.05.044.028.087.026.139.02a.775.775 0 0 1-.323.212zm-.91.547c-.025-.038-.025-.038-.047-.049.072-.004.072-.004.135.003a.498.498 0 0 0-.088.046zm-.188.1c.012-.017.027-.03.041-.045.003.02-.027.04-.041.045zm1.698-1.78a10.196 10.196 0 0 1-1.649 1.539c.02.002.02.002.068-.026.003.01.007.015.012.026-.035.025-.035.025-.16.085-.004-.007-.004-.007.018-.039-.394.256-.801.496-1.216.714-.024.097-.029.167.045.233-.14.13-.173.675-.235.896-.025.068-.125.265-.125.33.24-.22.499-.539.792-.686.17.095.316-.161.395-.31.078-.065.265-.179.275-.274.077-.051.16-.103.243-.155 0 .058-.11.135-.062.196.404 0 .595-.526.745-.802.008.053.002.12.076.072.017.026-.032.087 0 .118-.084.242-.55.622-.732.826-.635.58-1.268.996-2.016 1.44-.048.06-.138.127-.216.193a8.436 8.436 0 0 0 3.63-3.257c.104-.361.122-.75.128-1.123-.006 0-.01.003-.016.005zm.01.909a8.26 8.26 0 0 0 .939-2.537 6.8 6.8 0 0 1-.858 1.516 7.7 7.7 0 0 1-.081 1.02zm-7.157 2.402c-.224-.004-.445-.008-.667-.01a11.716 11.716 0 0 1-3.87-.994c-.07.685.133 1.43.594 1.938a8.303 8.303 0 0 0 3.81.918l.158-.002c-.092-.235-.025-1.655-.025-1.85zm2.878 1.114c.015-.01.034-.019.05-.028.01-.097-.028-.066.063-.167l.77-.394c.187-.255.261-.637.324-.941.007-.068.063-.36.031-.427-.02 0-.038 0-.058.002-.063.11-.07.14-.07.276-.005.005-.012.007-.016.008-.013-.187-.092-.103-.009-.33-.076.032-.437.15-.466.213 0 .092-.116.275-.219.223-.035 0-.035 0-.535.115-.024-.033-.032-.069-.078-.069-.256.069-.516.143-.778.191v.018c.072.028.149.052.224.081-.01.062-.018.123-.025.188-.235.048-.413-.055-.596-.2-.469.067-.941.103-1.418.127 0 .195.062 1.606-.008 1.85a8.372 8.372 0 0 0 3.141-.693c.09-.066.176-.137.258-.215-.12-.056-.375.276-.585.172zM43.399 26.488h2.41c-.017.884-.607 1.605-1.787 1.605-.303 0-.828-.033-1.435-.295l-.139.966a4.52 4.52 0 0 0 1.533.27c1.95 0 3.057-1.196 3.057-3.02 0-1.778-1.164-2.843-2.885-2.843-.615 0-1.139.098-1.582.246l.09.917a3.618 3.618 0 0 1 1.238-.221c1.442 0 1.82.876 1.91 1.433h-2.41v.942zm5.23-3.251v1.867c0 1.36.123 2.997-.78 2.997-.09 0-.237-.025-.311-.041l-.049.909c.156.033.369.066.557.066 1.705 0 1.673-1.712 1.673-3.637v-1.146h1.516v4.717h1.164v-5.732h-3.77zm4.917 0v5.732h3.426v-1.016H54.71v-1.465h2.058v-.942H54.71v-1.294h2.262v-1.015h-3.426zm4.41 0v5.732h1.164v-2.85h.025l2.13 2.85h1.476l-2.541-3.137 2.393-2.595h-1.385l-2.073 2.448h-.025v-2.448h-1.164zm4.59 0v1.015h1.656v4.717h1.163v-4.717h1.656v-1.015h-4.475zm5.172 0v5.732h1.164v-2.154h.746c1.467 0 1.991-1.032 1.991-1.785 0-.36-.122-1.793-2.204-1.793h-1.697zm1.164 2.677v-1.777h.533c.672 0 .975.386.975.86 0 .434-.27.917-.975.917h-.533zm5.95-2.743c-1.418 0-2.81.852-2.81 2.932s1.392 2.932 2.81 2.932c1.419 0 2.812-.853 2.812-2.932 0-2.08-1.393-2.932-2.812-2.932zm0 .819c.434 0 1.582.172 1.582 2.113 0 1.94-1.148 2.112-1.582 2.112-.434 0-1.581-.172-1.581-2.112 0-1.94 1.147-2.113 1.581-2.113zm3.754-.753v5.732h1.165v-4.717h2.36v-1.015h-3.525zm4.181 0v5.732h3.426v-1.016H83.93v-1.465h2.057v-.942h-2.057v-1.294h2.262v-1.015h-3.426zm4.41 0v5.732h1.164v-2.481h2.327v2.48h1.165v-5.731h-1.165v2.309h-2.327v-2.31h-1.165zm5.802 0v5.732h3.427v-1.016h-2.262v-1.465H96.2v-.942h-2.057v-1.294h2.262v-1.015h-3.427zm4.41 0v5.732h1.165v-2.154h.745c1.468 0 1.991-1.032 1.991-1.785 0-.36-.122-1.793-2.204-1.793H97.39zm1.165 2.677v-1.777h.532c.672 0 .976.386.976.86 0 .434-.271.917-.976.917h-.532zm4.77-2.677l-2.287 5.732h1.246l.484-1.294h2.368l.484 1.294h1.311l-2.278-5.732h-1.328zm-.189 3.497l.795-2.342h.017l.844 2.342h-1.656zm4.492-3.497v5.732h4.262v1.18h1.058v-2.196h-.665v-4.716h-1.163v4.716h-2.328v-4.716h-1.164zm6.057 0v5.732h1.394l2.024-3.473.394-.868h.024l-.024 1.385v2.956h1.163v-5.732h-1.393l-2.008 3.504-.41.835h-.025l.026-1.391v-2.948h-1.165zm10.205 0h-1.86c-.402 0-2.27-.025-2.27 1.768 0 1.065.68 1.466 1.13 1.605l-1.369 2.359h1.394l1.115-2.13h.696v2.13h1.164v-5.732zm-1.164 2.702h-.656c-.147 0-1.081-.008-1.081-.9 0-.312.122-.902 1.073-.902h.664v1.802z"/>
    </g>
</svg>
